<?xml version="1.0" encoding="UTF-8" standalone="no"?>
<svg
   width="32"
   height="32"
   viewBox="0 0 24 24"
   fill="none"
   stroke="#e60540"
   stroke-width="3"
   stroke-linecap="round"
   stroke-linejoin="round"
   class="feather feather-map-pin"
   version="1.1"
   id="svg1"
   sodipodi:docname="bat_hanging.svg"
   inkscape:version="1.4 (86a8ad7, 2024-10-11)"
   xml:space="preserve"
   xmlns:inkscape="http://www.inkscape.org/namespaces/inkscape"
   xmlns:sodipodi="http://sodipodi.sourceforge.net/DTD/sodipodi-0.dtd"
   xmlns="http://www.w3.org/2000/svg"
   xmlns:svg="http://www.w3.org/2000/svg"><defs
     id="defs1" /><sodipodi:namedview
     id="namedview1"
     pagecolor="#505050"
     bordercolor="#ffffff"
     borderopacity="1"
     inkscape:showpageshadow="0"
     inkscape:pageopacity="0"
     inkscape:pagecheckerboard="1"
     inkscape:deskcolor="#505050"
     inkscape:zoom="9.4687502"
     inkscape:cx="22.547854"
     inkscape:cy="15.419142"
     inkscape:window-width="1368"
     inkscape:window-height="850"
     inkscape:window-x="-6"
     inkscape:window-y="-6"
     inkscape:window-maximized="1"
     inkscape:current-layer="layer2"
     showguides="true"><sodipodi:guide
       position="12,12"
       orientation="0,-1"
       id="guide4"
       inkscape:locked="false" /><sodipodi:guide
       position="12,12"
       orientation="1,0"
       id="guide5"
       inkscape:locked="false" /></sodipodi:namedview><g
     inkscape:groupmode="layer"
     id="layer2"
     inkscape:label="Layer 2"><path
       style="fill:none;stroke:#ad6300;stroke-width:2.25;stroke-linecap:square;stroke-dasharray:none;stroke-opacity:1"
       d="M 0.31683167,10.772277 C 2.2666183,9.8208375 3.9606913,8.5284464 6.4950494,8.3564355 L 10.019802,10.930693 C 9.7123967,10.346815 9.4881733,9.8294826 9.7029698,9.663366 8.8051123,8.5412538 9.2583283,7.4191417 9.4653465,6.2970295 10.545305,6.4183917 10.981761,7.1832552 11.564357,7.80198 c 0.237624,-0.2166269 0.475247,-0.1244042 0.712871,0.079208 0.240562,-0.9018417 1.16934,-1.230171 2.019802,-1.6237626 0.645566,1.1957113 0.378146,2.3153405 -0.237624,3.4059404 0.262251,0.3828382 -0.0285,0.7656772 -0.277228,1.1485152 0.904969,-0.553654 2.120413,-1.495401 3.445544,-2.5742577 2.683641,0.2914757 4.375147,1.4648498 6.138614,2.5742577 -2.315177,0.03631 -3.348181,0.927395 -3.128713,2.653465 -1.983241,-0.708295 -3.203645,-0.08163 -3.920792,1.425743 -0.770835,-1.073102 -1.631907,-1.288961 -2.613861,-0.356436 -0.344932,0.914725 -0.52798,1.883412 -1.782178,2.495049 C 11.024091,16.487459 10.363007,15.709599 10.099009,14.534653 8.8183661,13.547997 7.9877336,13.847085 7.4455444,14.970297 6.6319847,13.320499 5.53262,12.346241 3.5643563,13.425743 3.7091333,11.903066 2.8096687,10.923395 0.31683167,10.772277 Z"
       id="path5"
       sodipodi:nodetypes="cccccccccccccccccccc" /></g></svg>
