<?xml version="1.0" encoding="UTF-8" standalone="no"?>
<svg
   width="32"
   height="32"
   viewBox="0 0 24 24"
   fill="none"
   stroke="#e60540"
   stroke-width="3"
   stroke-linecap="round"
   stroke-linejoin="round"
   class="feather feather-map-pin"
   version="1.1"
   id="svg1"
   sodipodi:docname="bat_hanging.svg"
   inkscape:version="1.4 (86a8ad7, 2024-10-11)"
   xml:space="preserve"
   xmlns:inkscape="http://www.inkscape.org/namespaces/inkscape"
   xmlns:sodipodi="http://sodipodi.sourceforge.net/DTD/sodipodi-0.dtd"
   xmlns="http://www.w3.org/2000/svg"
   xmlns:svg="http://www.w3.org/2000/svg"><defs
     id="defs1" /><sodipodi:namedview
     id="namedview1"
     pagecolor="#505050"
     bordercolor="#ffffff"
     borderopacity="1"
     inkscape:showpageshadow="0"
     inkscape:pageopacity="0"
     inkscape:pagecheckerboard="1"
     inkscape:deskcolor="#505050"
     inkscape:zoom="9.4687502"
     inkscape:cx="20.646864"
     inkscape:cy="17.953795"
     inkscape:window-width="1368"
     inkscape:window-height="850"
     inkscape:window-x="-6"
     inkscape:window-y="-6"
     inkscape:window-maximized="1"
     inkscape:current-layer="svg1"
     showguides="true" /><g
     inkscape:groupmode="layer"
     id="layer1"
     inkscape:label="Layer 1"><path
       style="fill:none;stroke:#ad6300;stroke-width:2.82124;stroke-linecap:round;stroke-dasharray:none;stroke-opacity:1"
       d="M 10.774606,20.461267 C 9.8314219,21.383795 9.2166249,22.599478 7.2286728,22.58933 7.3463205,20.868517 7.0734909,18.930405 8.6366168,18.013994 L 8.4280329,17.056365 C 5.5655033,12.658368 9.8219404,8.2603687 11.035337,3.8623711 13.306338,1.9033628 5.407657,2.0103007 3.3501149,2.0288327 0.95372678,2.0504165 21.238408,1.7514911 21.898849,2.000521 23.854881,2.7380747 4.13047,0.53116342 13.016887,3.7559685 14.064137,8.2369555 18.5317,12.608896 15.624192,17.21597 l -0.156438,0.63842 c 1.858389,1.910728 1.672871,3.330801 1.199358,4.681739 -1.377112,0.122447 -2.433802,-1.062731 -3.545933,-2.02166 -0.931333,0.559141 -1.385889,0.455709 -2.346573,-0.0532 z"
       id="path2"
       sodipodi:nodetypes="cccccssccccccc" /><path
       style="fill:none;stroke:#ad6300;stroke-width:2.25;stroke-linecap:round;stroke-dasharray:none;stroke-opacity:1"
       d="M 7.6731586,12.545895 C 10.457662,11.86868 12.333135,10.447638 14.226148,7.3931163 12.27724,9.819986 10.804197,12.039987 7.6731586,12.545895 Z"
       id="path3"
       sodipodi:nodetypes="ccc" /><path
       style="fill:none;stroke:#ad6300;stroke-width:2.25;stroke-linecap:round;stroke-dasharray:none;stroke-opacity:1"
       d="m 16.33127,14.562199 c -2.678038,-0.149765 -3.803352,-1.430943 -5.003971,-3.501353 1.438671,2.665255 2.969847,3.21791 5.003971,3.501353 z"
       id="path4"
       sodipodi:nodetypes="ccc" /></g></svg>
