<?xml version="1.0" encoding="UTF-8" standalone="no"?>
<!-- Created with Inkscape (http://www.inkscape.org/) -->

<svg
   width="200mm"
   height="200mm"
   viewBox="0 0 200 200"
   version="1.1"
   id="svg1"
   xml:space="preserve"
   inkscape:version="1.4 (86a8ad7, 2024-10-11)"
   sodipodi:docname="Logo V2.svg"
   inkscape:export-filename="Logo V2.svg"
   inkscape:export-xdpi="96"
   inkscape:export-ydpi="96"
   xmlns:inkscape="http://www.inkscape.org/namespaces/inkscape"
   xmlns:sodipodi="http://sodipodi.sourceforge.net/DTD/sodipodi-0.dtd"
   xmlns:xlink="http://www.w3.org/1999/xlink"
   xmlns="http://www.w3.org/2000/svg"
   xmlns:svg="http://www.w3.org/2000/svg"><sodipodi:namedview
     id="namedview1"
     pagecolor="#ffffff"
     bordercolor="#000000"
     borderopacity="0.24705882"
     inkscape:showpageshadow="2"
     inkscape:pageopacity="0.0"
     inkscape:pagecheckerboard="true"
     inkscape:deskcolor="#d1d1d1"
     inkscape:document-units="mm"
     showguides="false"
     inkscape:zoom="0.5398569"
     inkscape:cx="430.66968"
     inkscape:cy="440.85757"
     inkscape:window-width="1368"
     inkscape:window-height="850"
     inkscape:window-x="-6"
     inkscape:window-y="-6"
     inkscape:window-maximized="1"
     inkscape:current-layer="layer1"><sodipodi:guide
       position="99.999999,99.999999"
       orientation="0,-1"
       id="guide1"
       inkscape:locked="false" /><sodipodi:guide
       position="99.999999,99.999999"
       orientation="1,0"
       id="guide2"
       inkscape:locked="false" /></sodipodi:namedview><defs
     id="defs1"><rect
       x="387.13963"
       y="38.899197"
       width="439.00523"
       height="392.69666"
       id="rect39" /><linearGradient
       id="linearGradient38"
       inkscape:collect="always"><stop
         style="stop-color:#1a110a;stop-opacity:1;"
         offset="0"
         id="stop38" /><stop
         style="stop-color:#2d2718;stop-opacity:1;"
         offset="1"
         id="stop39" /></linearGradient><linearGradient
       id="linearGradient35"
       inkscape:collect="always"><stop
         style="stop-color:#252013;stop-opacity:1;"
         offset="0"
         id="stop36" /><stop
         style="stop-color:#2d2718;stop-opacity:1;"
         offset="1"
         id="stop37" /></linearGradient><linearGradient
       id="linearGradient34"
       inkscape:collect="always"><stop
         style="stop-color:#50452a;stop-opacity:1;"
         offset="0"
         id="stop35" /><stop
         style="stop-color:#252013;stop-opacity:1;"
         offset="1"
         id="stop34" /></linearGradient><linearGradient
       id="linearGradient32"
       inkscape:collect="always"><stop
         style="stop-color:#1a110a;stop-opacity:1;"
         offset="0"
         id="stop32" /><stop
         style="stop-color:#50452a;stop-opacity:1;"
         offset="1"
         id="stop33" /></linearGradient><linearGradient
       id="linearGradient30"
       inkscape:collect="always"><stop
         style="stop-color:#1a110a;stop-opacity:1;"
         offset="0"
         id="stop30" /><stop
         style="stop-color:#50452a;stop-opacity:1;"
         offset="1"
         id="stop31" /></linearGradient><linearGradient
       id="linearGradient28"
       inkscape:collect="always"><stop
         style="stop-color:#1a110a;stop-opacity:1;"
         offset="0"
         id="stop28" /><stop
         style="stop-color:#50452a;stop-opacity:1;"
         offset="1"
         id="stop29" /></linearGradient><linearGradient
       id="linearGradient26"
       inkscape:collect="always"><stop
         style="stop-color:#252013;stop-opacity:1;"
         offset="0"
         id="stop26" /><stop
         style="stop-color:#50452a;stop-opacity:1;"
         offset="1"
         id="stop27" /></linearGradient><linearGradient
       id="linearGradient23"
       inkscape:collect="always"><stop
         style="stop-color:#252013;stop-opacity:1;"
         offset="0"
         id="stop24" /><stop
         style="stop-color:#50452a;stop-opacity:1;"
         offset="1"
         id="stop25" /></linearGradient><linearGradient
       id="linearGradient18"
       inkscape:collect="always"><stop
         style="stop-color:#fdc20f;stop-opacity:1;"
         offset="0"
         id="stop18" /><stop
         style="stop-color:#fdeaa4;stop-opacity:1;"
         offset="1"
         id="stop19" /></linearGradient><radialGradient
       inkscape:collect="always"
       xlink:href="#linearGradient18"
       id="radialGradient19"
       cx="130.12798"
       cy="69.832938"
       fx="130.12798"
       fy="69.832938"
       r="66.617375"
       gradientTransform="matrix(1.0634649,0,0,1.0468669,-9.389687,-1.0875527)"
       gradientUnits="userSpaceOnUse" /><linearGradient
       inkscape:collect="always"
       xlink:href="#linearGradient23"
       id="linearGradient25"
       x1="64.423096"
       y1="149.61099"
       x2="192.41959"
       y2="149.61099"
       gradientUnits="userSpaceOnUse"
       gradientTransform="matrix(1.0634649,0,0,1.0634649,-9.389687,-2.2466421)" /><linearGradient
       inkscape:collect="always"
       xlink:href="#linearGradient26"
       id="linearGradient27"
       x1="19.984778"
       y1="70.837495"
       x2="78.489023"
       y2="70.837495"
       gradientUnits="userSpaceOnUse"
       gradientTransform="matrix(1.0634649,0,0,1.0634649,-9.389687,-2.2466421)" /><linearGradient
       inkscape:collect="always"
       xlink:href="#linearGradient28"
       id="linearGradient29"
       x1="64.423096"
       y1="149.611"
       x2="192.41958"
       y2="149.611"
       gradientUnits="userSpaceOnUse"
       gradientTransform="matrix(1.0634649,0,0,1.0634649,-9.389687,-2.2466421)" /><linearGradient
       inkscape:collect="always"
       xlink:href="#linearGradient30"
       id="linearGradient31"
       x1="19.984778"
       y1="70.837495"
       x2="78.489023"
       y2="70.837495"
       gradientUnits="userSpaceOnUse"
       gradientTransform="matrix(1.0634649,0,0,1.0634649,-9.389687,-2.2466421)" /><linearGradient
       inkscape:collect="always"
       xlink:href="#linearGradient32"
       id="linearGradient33"
       x1="70.041747"
       y1="108.23574"
       x2="112.93605"
       y2="108.23574"
       gradientUnits="userSpaceOnUse"
       gradientTransform="matrix(1.0634649,0,0,1.0634649,-9.389687,-2.2466421)" /><radialGradient
       inkscape:collect="always"
       xlink:href="#linearGradient34"
       id="radialGradient35"
       cx="91.488899"
       cy="108.23574"
       fx="91.488899"
       fy="108.23574"
       r="21.447151"
       gradientTransform="matrix(1.0634649,0,0,1.0611135,-9.389687,-1.9921316)"
       gradientUnits="userSpaceOnUse" /><linearGradient
       inkscape:collect="always"
       xlink:href="#linearGradient35"
       id="linearGradient37"
       x1="36.740226"
       y1="137.20582"
       x2="87.885603"
       y2="137.20582"
       gradientUnits="userSpaceOnUse"
       gradientTransform="matrix(1.0634649,0,0,1.0634649,-9.389687,-2.2466421)" /><radialGradient
       inkscape:collect="always"
       xlink:href="#linearGradient38"
       id="radialGradient39"
       cx="56.877911"
       cy="143.66693"
       fx="56.877911"
       fy="143.66693"
       r="27.195658"
       gradientTransform="matrix(1,0,0,1.021764,0,-3.1267699)"
       gradientUnits="userSpaceOnUse" /></defs><g
     inkscape:label="Layer 1"
     inkscape:groupmode="layer"
     id="layer1"><rect
       style="display:none;fill:#1a110a;fill-opacity:1;stroke:#1a110a;stroke-width:2;stroke-linecap:round;stroke-linejoin:round;stroke-dasharray:none;stroke-opacity:1"
       id="rect40"
       width="223.48514"
       height="219.07425"
       x="-13.722773"
       y="-10.782179" /><path
       id="path17"
       style="display:inline;fill:url(#radialGradient19);fill-opacity:1;stroke:none;stroke-width:0.542422;stroke-linecap:round;stroke-linejoin:round;stroke-dasharray:none;stroke-opacity:1"
       d="M 143.74102,2.5499227 C 115.7251,2.5731952 92.06497,23.356376 88.429923,51.135487 l 2.222253,59.161373 56.654394,3.65672 c 29.33525,-1.87699 52.19001,-26.179185 52.26432,-55.574333 -5e-5,-30.833878 -24.99599,-55.8295789 -55.82987,-55.8293243 z"
       sodipodi:nodetypes="cccccc" /><path
       id="path15"
       style="display:inline;fill:#4f3f30;fill-opacity:1;stroke:#4f3f30;stroke-width:0.531731;stroke-linecap:round;stroke-linejoin:round;stroke-dasharray:none;stroke-opacity:1"
       d="m 166.3861,162.84439 v 5.60386 L 11.718827,168.7082 0.39238067,175.24743 11.572095,181.70202 H 166.3861 v 4.85701 l 21.85658,-11.44625 z" /><path
       id="path16"
       style="display:inline;fill:#ad6300;fill-opacity:1;stroke:#ad6300;stroke-width:0.531731;stroke-linecap:round;stroke-linejoin:round;stroke-dasharray:none;stroke-opacity:1"
       d="m 11.576584,33.178978 h 5.603864 L 17.44039,187.84626 23.979615,199.1727 30.434209,187.993 V 33.178978 H 35.29122 L 23.84497,11.322408 Z" /><path
       style="display:inline;fill:url(#linearGradient25);fill-opacity:1;stroke:url(#linearGradient29);stroke-width:2.12693;stroke-dasharray:none"
       d="m 90.59649,130.92517 c 26.66692,14.50199 62.19689,-25.56984 102.45585,13.63622 -22.34937,4.45733 -36.7329,16.31151 -45.33118,33.5377 -19.50931,-5.40764 -35.01751,-0.81253 -48.64811,8.47657 -10.922573,-11.69354 -22.618826,-21.76941 -38.881621,-22.29705 -0.287649,-21.05 9.808433,-32.20492 30.405061,-33.35344 z"
       id="path3"
       sodipodi:nodetypes="cccccc" /><path
       style="display:inline;fill:url(#linearGradient27);fill-opacity:1;stroke:url(#linearGradient31);stroke-width:2.12693;stroke-dasharray:none"
       d="M 68.906263,109.04074 C 54.404273,82.373828 94.47611,46.843852 55.270048,6.5848819 50.812718,28.934255 38.958538,43.317789 21.732343,51.916073 c 5.407647,19.509302 0.812529,35.017503 -8.47657,48.648107 11.693543,10.92258 21.769419,22.61883 22.297056,38.88163 11.143754,-10.10516 34.938078,-5.65022 33.353434,-30.40507 z"
       id="path4"
       sodipodi:nodetypes="cccccc" /><path
       style="display:inline;fill:url(#linearGradient37);fill-opacity:1;stroke:url(#radialGradient39);stroke-width:2.12693;stroke-dasharray:none"
       d="m 30.81972,169.7246 c 20.856687,5.36895 72.22275,-23.29154 43.857013,-42.75136 C 56.150766,98.777323 29.157952,135.48388 30.81972,169.7246 Z"
       id="path5"
       sodipodi:nodetypes="ccc" /><path
       style="display:inline;fill:url(#radialGradient35);stroke:url(#linearGradient33);stroke-width:2.12693;stroke-dasharray:none;stroke-opacity:1"
       d="m 69.885626,130.29016 c 15.946556,9.73799 23.286154,0.85602 29.299434,-6.81811 6.34944,0.45269 8.06479,-3.72869 10.13502,-7.5552 -5.68287,-3.84306 -9.736899,-1.71381 -14.004769,-0.36855 -1.894595,-4.46042 -4.70412,-8.23467 -10.503566,-9.76647 2.113732,-4.48914 4.566326,-8.929878 0,-14.373315 -4.936499,2.296028 -8.434366,5.455231 -8.476562,10.687855 -7.278508,6.75589 -14.958556,13.30492 -6.449557,28.19379 z"
       id="path6"
       sodipodi:nodetypes="cccccccc" /><path
       style="display:inline;fill:#252013;fill-opacity:1;stroke:#1a110a;stroke-width:1.06347;stroke-dasharray:none;stroke-opacity:1"
       d="m 33.031005,148.16464 c -4.103641,2.74952 -4.194901,4.9963 -12.62271,9.85862 1.417826,0.96982 2.490807,0.73268 3.685461,0.92136 -1.175567,0.35134 -1.954541,1.18738 -2.579829,2.21128 1.024774,0.4669 1.953336,0.35645 2.856241,0.0922 -0.245701,0.65969 -0.491401,0.64535 -0.737097,2.94838 3.117892,0.8077 4.500848,-2.72193 6.725969,-4.14615 z"
       id="path7"
       sodipodi:nodetypes="cccccccc" /><path
       style="display:inline;fill:#252013;fill-opacity:1;stroke:#1a110a;stroke-width:1.06347;stroke-dasharray:none;stroke-opacity:1"
       d="m 52.262089,167.94855 c -2.749514,4.10363 -4.996289,4.19489 -9.858613,12.6227 -0.969825,-1.41783 -0.732673,-2.49081 -0.921367,-3.68546 -0.351335,1.17558 -1.187382,1.95453 -2.211283,2.57983 -0.46689,-1.02477 -0.356455,-1.95333 -0.09213,-2.85625 -0.659686,0.24571 -0.645337,0.49141 -2.948369,0.73711 -0.807712,-3.1179 2.721932,-4.50086 4.146142,-6.72598 z"
       id="path8"
       sodipodi:nodetypes="cccccccc" /><circle
       style="display:inline;fill:#000000;fill-opacity:1;stroke:#000000;stroke-width:0.531732;stroke-dasharray:none;stroke-opacity:1"
       id="path9"
       cx="147.80006"
       cy="23.558231"
       r="2.6060157"
       transform="rotate(45)" /><circle
       style="display:inline;fill:#fdeaa4;fill-opacity:1;stroke:#fdeaa4;stroke-width:0.531731;stroke-dasharray:none;stroke-opacity:1"
       id="path10"
       cx="148.647"
       cy="22.580975"
       r="1.0424062"
       transform="rotate(45)" /><path
       style="display:inline;fill:#000000;fill-opacity:1;stroke:#000000;stroke-width:0.531731;stroke-linecap:round;stroke-dasharray:none;stroke-opacity:1"
       d="m 75.229546,118.68095 c 1.462723,2.95271 4.054116,5.26049 7.232717,7.23272 z"
       id="path11"
       sodipodi:nodetypes="ccc" /><path
       style="display:inline;fill:#000000;fill-opacity:1;stroke:#000000;stroke-width:0.531731;stroke-linecap:round;stroke-linejoin:round;stroke-dasharray:none;stroke-opacity:1"
       d="m 76.721936,120.64046 -1.775348,0.89583 2.671165,-0.0326 z"
       id="path12" /><path
       style="display:inline;fill:#000000;fill-opacity:1;stroke:#000000;stroke-width:0.531731;stroke-linecap:round;stroke-linejoin:round;stroke-dasharray:none;stroke-opacity:1"
       d="m 80.288924,124.43547 -0.895831,1.77535 0.03254,-2.67117 z"
       id="path13" /><use
       x="0"
       y="0"
       xlink:href="#path9"
       id="use13"
       transform="translate(-8.2001541,-8.2001543)"
       style="display:inline;stroke:#fdc20f;stroke-opacity:1" /><use
       x="0"
       y="0"
       xlink:href="#path10"
       id="use14"
       transform="translate(-8.2001541,-8.2001543)"
       style="display:inline" /><path
       style="font-size:266.667px;font-family:'Franklin Gothic Heavy';-inkscape-font-specification:'Franklin Gothic Heavy, ';text-align:center;text-anchor:middle;white-space:pre;fill:#ad6300;stroke:#4f3f30;stroke-width:7.55906;stroke-linecap:round;stroke-linejoin:round"
       d="m 598.82909,243.39875 v 99.6095 h -26.69274 q -3.25521,-11.06773 -7.16147,-18.61982 -16.53647,21.35419 -48.95839,21.35419 -34.37504,0 -56.51048,-23.95836 -22.13545,-24.08857 -22.13545,-65.10424 0,-39.8438 21.35419,-66.92717 21.48441,-27.21357 63.80217,-27.21357 31.77087,0 51.17193,16.14585 19.40107,16.14585 25.13024,45.83339 l -52.86465,5.20834 q -3.90625,-27.73441 -24.34898,-27.73441 -26.82295,0 -26.82295,51.04173 0,30.85941 8.59376,40.75526 8.59376,9.76563 20.83336,9.76563 9.89584,0 16.79689,-5.98959 7.03126,-5.98959 7.16147,-16.40627 h -29.42712 v -37.76046 z m 28.77608,99.6095 v -177.7346 h 90.23448 q 28.12503,0 41.01568,14.19273 12.89064,14.19273 12.89064,32.42191 0,13.28127 -7.5521,24.08858 -7.42188,10.67709 -22.26565,14.71356 34.50525,8.33334 34.50525,41.4063 0,19.79169 -12.2396,35.41671 -12.10939,15.49481 -51.95319,15.49481 z M 677.86564,233.3727 h 25.26045 q 9.50522,0 13.41148,-4.81772 3.90625,-4.81771 3.90625,-10.28647 0,-14.84377 -18.22919,-14.84377 h -24.34899 z m 0,70.05216 h 26.56254 q 9.89584,0 14.45314,-4.81771 4.6875,-4.94792 4.6875,-11.06772 0,-6.1198 -4.55729,-11.19793 -4.42709,-5.20834 -16.40627,-5.20834 h -24.73962 z"
       id="text39"
       transform="matrix(0.26458333,0,0,0.26458333,-18.133663,-8.8217822)"
       aria-label="GB" /></g></svg>
