<?xml version="1.0" encoding="UTF-8" standalone="no"?>
<!-- Created with Inkscape (http://www.inkscape.org/) -->

<svg
   width="400mm"
   height="200mm"
   viewBox="0 0 400 200"
   version="1.1"
   id="svg1"
   xml:space="preserve"
   inkscape:version="1.4 (86a8ad7, 2024-10-11)"
   sodipodi:docname="Logo V1.svg"
   inkscape:export-filename="Logo V1.png"
   inkscape:export-xdpi="96"
   inkscape:export-ydpi="96"
   xmlns:inkscape="http://www.inkscape.org/namespaces/inkscape"
   xmlns:sodipodi="http://sodipodi.sourceforge.net/DTD/sodipodi-0.dtd"
   xmlns:xlink="http://www.w3.org/1999/xlink"
   xmlns="http://www.w3.org/2000/svg"
   xmlns:svg="http://www.w3.org/2000/svg"><sodipodi:namedview
     id="namedview1"
     pagecolor="#505050"
     bordercolor="#ffffff"
     borderopacity="1"
     inkscape:showpageshadow="0"
     inkscape:pageopacity="0"
     inkscape:pagecheckerboard="1"
     inkscape:deskcolor="#505050"
     inkscape:document-units="mm"
     showguides="true"
     showgrid="true"
     inkscape:zoom="0.38173647"
     inkscape:cx="614.29813"
     inkscape:cy="343.16868"
     inkscape:window-width="1368"
     inkscape:window-height="850"
     inkscape:window-x="-6"
     inkscape:window-y="-6"
     inkscape:window-maximized="1"
     inkscape:current-layer="layer5" /><defs
     id="defs1"><clipPath
       clipPathUnits="userSpaceOnUse"
       id="clipPath29"><path
         id="path29"
         style="fill:#ff0000;fill-opacity:1;fill-rule:nonzero;stroke:none;stroke-width:0.264583"
         d="M 4.2695069,6.3825562 V 191.91387 H 113.06648 V 6.3825562 Z M 25.582418,10.088273 c 1.03362,0.04497 2.189259,0.892957 2.844788,2.75177 0.151551,0.429736 0.496131,1.446762 0.687814,1.765784 0.291944,0.485893 0.655579,0.926191 1.015958,1.363741 1.222692,1.484514 2.295673,2.632571 3.790465,3.871598 0.731896,0.606663 1.530255,1.128347 2.295467,1.692403 0.808061,0.393375 1.561791,0.927201 2.424142,1.18029 0.853241,0.250413 1.761135,0.282485 2.649969,0.309025 4.399737,0.131386 8.576325,-1.406683 12.675195,-2.799829 2.878082,-1.112005 5.789139,-2.066053 8.812382,-2.677873 4.755335,-0.962348 5.716788,3.888331 0.952912,4.807459 -2.818802,0.543852 -5.506815,1.50293 -8.191746,2.511991 -6.061376,2.049457 -12.705098,4.349879 -19.103744,2.225704 -1.121175,-0.372198 -2.098752,-1.085251 -3.148129,-1.627808 -0.905963,-0.681847 -1.851486,-1.314238 -2.718181,-2.045353 -2.327746,-1.963614 -4.469972,-4.29336 -5.987748,-6.948413 -0.227258,-0.397543 -0.615732,-1.543359 -0.804085,-2.078943 -0.955711,-2.717562 0.293863,-4.367267 1.804541,-4.301546 z" /></clipPath><filter
       style="color-interpolation-filters:sRGB;"
       inkscape:label="Blur"
       id="filter38"
       x="-0.014212806"
       y="-0.028825174"
       width="1.0283323"
       height="1.0611016"><feGaussianBlur
         stdDeviation="2 2"
         result="blur"
         id="feGaussianBlur38" /></filter></defs><g
     inkscape:groupmode="layer"
     id="layer5"
     inkscape:label="bg"
     style="display:none"><rect
       style="display:inline;fill:#1a110a;fill-opacity:1;stroke:none;stroke-width:1.5;stroke-linecap:round;stroke-dasharray:none;stroke-opacity:1"
       id="rect38"
       width="465.07321"
       height="280.70737"
       x="-28.417292"
       y="-28.417292" /></g><path
     id="path17-5"
     style="fill:#000000;fill-opacity:1;fill-rule:nonzero;stroke:#000000;stroke-width:1.4985;stroke-linecap:round;stroke-dasharray:none;stroke-opacity:1;filter:url(#filter38)"
     d="M 38.10315,18.89176 20.859759,30.88328 c 0.08329,0.22046 -0.08832,0.46842 -0.682646,0.75603 -0.207949,0.10064 -0.407623,0.22015 -0.623734,0.30179 -0.113432,0.0429 -0.230144,0.07181 -0.348299,0.09301 l -3.127459,2.17506 0.315227,3.26285 c 0.07305,-0.006 0.145823,-0.01402 0.218591,-0.02532 0.303687,-0.0423 0.685319,-0.13988 1.042831,-0.13539 0.278065,0.004 0.541607,0.0687 0.743107,0.26975 0.269261,0.26864 0.355618,0.67243 0.533301,1.00873 -0.02394,0.44374 -0.145737,0.874 -0.246497,1.30534 -0.116554,0.34138 -0.275641,0.65913 -0.335897,1.01596 -0.06923,0.49363 -0.34038,0.89799 -0.600997,1.3069 -0.160034,0.37806 -0.337002,0.7047 -0.669209,0.97978 -0.03935,0.0326 -0.0807,0.06245 -0.12299,0.09095 l 4.710306,48.73966 c 0.309004,0.27835 0.612041,0.56324 0.901754,0.86248 0.521525,0.64041 1.258502,1.62958 0.81132,2.53577 -0.241533,0.48946 -0.67915,0.87986 -1.135848,1.17874 -0.04057,0.0266 -0.0841,0.04612 -0.128674,0.06252 l 2.284615,23.63835 -10.768335,76.061 4.353223,5.67665 c 0.594178,-0.24272 1.189193,-0.48367 1.82056,-0.60306 0.192754,-0.0364 0.389739,-0.0475 0.584461,-0.0713 0.416618,0.12309 0.903686,0.10608 1.249536,0.36897 0.869151,0.66065 0.956822,1.46284 0.74259,2.42363 -0.152601,0.68439 -0.704246,1.45318 -1.168404,2.09134 l 4.165637,5.43171 44.051575,-4.22558 21.175968,-10.98072 c -0.125633,-0.30447 -0.285907,-0.68905 -0.353467,-0.85938 -0.175401,-0.44221 -0.643764,-0.87882 -0.506429,-1.33429 0.56789,-1.88339 0.985193,-2.76078 1.675867,-2.79621 0.361781,-0.0186 0.798781,0.19411 1.371492,0.61392 0.798904,0.63419 1.547966,1.32877 2.231906,2.08462 l 12.093839,-6.27145 10.76833,-58.63053 -0.30386,-9.09402 c -0.79097,-0.49754 -1.37897,-1.19044 -1.80557,-2.04018 -0.20366,-0.6347 -0.49095,-1.35809 -0.41445,-2.04329 0.0309,-0.2771 0.11205,-0.54592 0.16795,-0.81907 0.22307,-0.2914 0.38649,-0.6404 0.66921,-0.87437 0.34947,-0.2892 0.75484,-0.40447 1.17564,-0.44028 l -1.44694,-43.3188 -9.13949,-12.83746 c -0.0549,0.0335 -0.10934,0.06789 -0.16433,0.10128 -0.11792,0.074 -1.5864,1.00295 -1.74667,1.07746 -0.37744,0.17549 -0.76928,0.5259 -1.17357,0.42685 -1.38733,-0.3399 -1.52565,-1.09385 -1.20871,-2.06809 0.3063,-0.75768 0.599,-1.51831 0.79582,-2.31408 0.12964,-0.52593 0.26397,-1.05029 0.39946,-1.57458 L 85.09253,27.34293 55.020981,21.93447 c -0.106683,0.11446 -0.211946,0.23033 -0.319877,0.34365 -0.825394,0.87911 -1.541706,1.85083 -2.331641,2.76107 -0.747485,0.8639 -1.489548,1.7337 -2.278414,2.56057 -0.579706,0.61564 -1.198182,1.19371 -2.023132,1.45417 -0.329131,-0.0233 -0.687073,0.06774 -0.98702,-0.06976 -0.919123,-0.42131 -0.817941,-1.39813 -0.585494,-2.15956 0.131477,-0.40709 0.302305,-0.8038 0.380855,-1.22576 0.10008,-0.38104 0.03987,-0.84224 0.09715,-1.25161 -0.70201,-0.16 -1.150854,-0.78013 -1.166337,-1.58026 0.03069,-0.41952 0.102487,-0.83577 0.107487,-1.25677 -0.03373,-0.24203 -0.09738,-0.48204 -0.146244,-0.71675 -0.169138,-0.24029 -0.391987,-0.42229 -0.588078,-0.62891 z m 262.40518,1.26349 -1.44436,0.1447 c -2.77408,0.0834 -5.63218,0.237 -8.59534,0.48317 l 0.0145,0.3762 -4.66277,0.46664 -6.0017,7.83312 0.0248,8.4739 c 0.39246,-0.14658 0.78627,-0.28918 1.18029,-0.43047 0.3539,-0.10707 1.3336,-0.56751 1.90066,-0.54467 0.13087,0.005 0.24005,0.0363 0.31419,0.10336 0.40839,0.36913 0.55732,0.94901 0.83612,1.42368 -0.0807,0.21411 -0.14014,0.43739 -0.24184,0.64234 -0.24166,0.48698 -0.67608,0.92711 -1.02268,1.33739 -0.56925,0.67382 -0.30549,0.36536 -0.9617,1.11259 -0.61997,0.71028 -1.29316,1.36587 -1.98851,1.99833 l 0.29611,101.76071 -45.98531,-26.5498 54.33777,94.11519 58.23986,-94.46814 -46.24007,26.69708 V 86.23029 c 28.81766,2.07057 47.93044,-6.2652 56.52058,-17.65629 -0.56541,-0.50901 -1.13316,-1.01541 -1.69757,-1.52549 -0.16136,-0.14583 -2.50079,-2.23105 -2.68098,-2.54248 -0.30241,-0.52264 -0.32762,-1.16238 -0.49144,-1.74356 0.35691,-0.30303 0.66114,-0.68269 1.07073,-0.9095 0.0962,-0.0533 0.20584,-0.06602 0.31885,-0.06512 0.113,8.9e-4 0.22952,0.01556 0.33951,0.01706 0.88301,0.0112 1.75882,0.19281 2.6355,0.30799 0.0151,-0.0285 0.0291,-0.05757 0.046,-0.08527 0.27106,-0.44497 1.58893,-0.56001 2.07946,-0.65991 0.8016,-0.15394 1.60144,-0.3125 2.41381,-0.39274 2.06016,-6.2263 1.41613,-12.82767 -2.06086,-18.865 -0.41135,0.0931 -0.82285,0.15841 -1.22111,0.16795 -0.36384,0.009 -0.83826,0.17294 -1.08779,-0.09198 -0.45989,-0.48827 -0.61763,-1.20847 -0.75499,-1.865 -0.0339,-0.1623 0.18553,-0.27458 0.27853,-0.41187 0.25135,-0.28099 0.50088,-0.56434 0.75655,-0.8418 -8.11493,-10.61936 -25.69002,-18.81426 -53.36161,-18.84278 -1.02054,-10e-4 -2.05512,0.01 -3.10316,0.031 z m 0,10.45259 25.24755,2.42776 16.17317,6.86108 5.8813,18.62367 -15.19339,11.76259 -17.64337,0.9803 -14.46526,-5.26014 z M 65.813604,40.05378 c 0.38129,0.0745 0.843193,-0.0231 1.143599,0.22324 0.843363,0.69157 0.512954,1.57729 0.213941,2.35335 -0.136502,0.35428 -0.320076,0.77791 -0.466122,1.12189 -0.137098,0.31006 -0.292178,0.61116 -0.437183,0.91726 0.171187,0.34768 0.315759,0.70911 0.454753,1.05265 0.03851,0.10227 0.07532,0.2049 0.111104,0.30799 l 7.009392,1.64124 24.00887,34.30592 0.304891,4.3341 c 0.854375,0.31976 1.68465,0.6967 2.466001,1.17047 0.27242,0.52422 0.9024,0.98846 0.817,1.57303 -0.10449,0.71522 -0.762,1.25226 -1.30018,1.73478 -0.233623,0.20946 -0.601392,0.18398 -0.908985,0.24598 -0.241903,0.0488 -0.486659,0.0873 -0.732771,0.11937 l 2.783806,39.54539 -10.435019,28.78739 c 0.0474,0.0262 0.09429,0.0537 0.140043,0.0842 0.189105,0.12624 0.348313,0.29203 0.522449,0.43822 0.155883,0.32737 0.376382,0.63147 0.467672,0.98237 0.06711,0.25777 0.04466,0.53711 -0.0047,0.79892 -0.183411,0.98088 -0.906405,1.58613 -1.67535,2.11873 -0.39943,0.24894 -0.823829,0.43322 -1.262456,0.57671 l -3.431831,9.46816 -42.627889,15.90962 -13.229167,-14.91537 6.406844,-24.52667 c -0.261799,-0.3085 -0.538827,-0.65614 -0.633553,-0.98702 -0.430367,-1.50328 0.09484,-2.38703 1.590084,-2.67477 l 3.415812,-13.07724 0.526066,-19.48253 c -0.139886,-0.22804 -0.28215,-0.45494 -0.429948,-0.67851 -1.037458,-1.1941 -1.633551,-1.25076 0.513664,-2.41071 L 41.50501,97.3893 37.524374,72.28954 c -0.101114,-0.0546 -0.172247,-0.11071 -0.191719,-0.16692 -0.67197,-1.93971 -0.765074,-2.26793 -0.26355,-2.70319 L 34.644964,54.13457 48.364023,41.70536 59.218141,44.2468 c 0.166105,-0.13008 0.33333,-0.25868 0.502294,-0.38498 1.190099,-0.86512 2.415735,-1.67543 3.66541,-2.45102 0.793722,-0.48353 1.542567,-1.05228 2.427759,-1.35702 z m 166.691636,9.58856 -13.72268,5.39089 -14.21257,-1.4702 -7.27139,7.55096 c 0.009,0.0117 0.0188,0.02293 0.0279,0.03463 0.20455,0.26622 0.41537,0.52811 0.62942,0.78703 0.40006,0.48152 0.82597,1.12443 0.44597,1.82314 -0.20708,0.38074 -0.7351,0.45885 -1.10278,0.68833 -0.91,0.0149 -1.80678,-0.16475 -2.68149,-0.39842 l 0.0574,-0.21033 -2.84789,2.95745 8.82169,29.89585 16.17369,12.74237 14.70298,-4.90099 h 13.23226 l -0.48989,-13.72268 -18.62367,-0.48989 -6.8616,-5.3914 -0.21704,-4.12688 c -0.41501,-1.7e-4 -0.58478,9.9e-4 -1.10536,-0.04651 -0.16146,-0.0148 -0.32918,-0.007 -0.48265,-0.05891 -0.28105,-0.0958 -0.76534,-0.0862 -0.80564,-0.38034 -0.25842,-1.88418 -0.11044,-1.85868 0.69246,-2.09341 0.51178,-0.10989 1.03093,-0.19382 1.55443,-0.20671 l -0.12609,-2.39882 8.82169,-1.9606 13.23278,0.49041 5.55625,-1.46245 c 0.20458,-1.07661 0.21496,-1.42764 0.53588,-1.418 0.13177,0.004 0.31661,0.0671 0.58912,0.16278 0.51104,0.19589 1.02669,0.38074 1.54615,0.55242 l 1.08418,-0.28525 V 55.52312 l -4.61988,-1.58388 c -0.15534,0.23081 -0.31177,0.46096 -0.478,0.68471 -0.73159,-0.16302 -1.53292,-0.13693 -2.1947,-0.48886 -0.11674,-0.0621 0.0125,-0.56658 0.16898,-1.0542 z m -64.53198,1.05678 -13.72267,5.39089 -14.21257,-1.4702 -7.27139,7.55097 c 0.009,0.0116 0.0188,0.02292 0.0279,0.03462 0.20455,0.26623 0.41537,0.52811 0.62942,0.78703 0.40006,0.48152 0.82597,1.12443 0.44597,1.82314 -0.20708,0.38075 -0.7351,0.45885 -1.10278,0.68833 -0.91,0.0149 -1.80678,-0.16475 -2.68149,-0.39842 l 0.0574,-0.21032 -2.84788,2.95744 8.82168,29.89585 16.17369,12.74237 14.70298,-4.90099 h 13.23226 l -0.48989,-13.72268 -18.62367,-0.48989 -6.86159,-5.3914 -0.21705,-4.12688 c -0.41501,-1.7e-4 -0.58477,9.9e-4 -1.10535,-0.04651 -0.16146,-0.0148 -0.32919,-0.007 -0.48266,-0.05891 -0.28105,-0.0958 -0.76534,-0.08621 -0.80564,-0.38034 -0.25842,-1.88419 -0.11043,-1.85868 0.69247,-2.09341 0.51178,-0.10989 1.03092,-0.19382 1.55442,-0.20671 l -0.12609,-2.39882 8.82169,-1.9606 13.23278,0.49041 5.55625,-1.46244 c 0.20458,-1.07661 0.21497,-1.42765 0.53589,-1.41801 0.13177,0.004 0.3166,0.0671 0.58911,0.16278 0.51104,0.19589 1.0267,0.38075 1.54616,0.55243 l 1.08417,-0.28526 V 56.5799 l -4.61988,-1.58388 c -0.15534,0.23081 -0.31177,0.46095 -0.478,0.68471 -0.73159,-0.16303 -1.53292,-0.13693 -2.1947,-0.48886 -0.11674,-0.0621 0.0125,-0.56658 0.16898,-1.0542 z m 67.96278,7.2745 4.4111,5.3914 -12.74289,2.94039 -9.80199,-3.92069 9.3121,-3.4308 z M 104.7859,58.16017 c -0.0139,0.0345 -0.0269,0.06931 -0.0408,0.10387 -0.002,0.01 -0.006,0.02886 -0.01,0.04496 0.0168,-0.0498 0.0385,-0.10041 0.0506,-0.14883 z m 66.61816,0.87023 4.4111,5.3914 -12.74289,2.94039 -9.80199,-3.92069 9.3121,-3.4308 z m 45.97756,21.56199 c -7.5e-4,1.4e-4 -0.002,4e-4 -0.003,5.2e-4 7e-5,0.002 4.5e-4,0.0042 5.1e-4,0.0062 5.6e-4,-0.002 0.001,-0.0042 0.002,-0.0062 z m -64.53198,1.05678 c -7.5e-4,1.4e-4 -0.002,4e-4 -0.003,5.2e-4 7e-5,0.002 4.5e-4,0.0042 5.1e-4,0.0062 5.6e-4,-0.002 0.001,-0.0042 0.002,-0.0062 z m 14.77687,33.16232 -13.72267,5.39089 -14.21257,-1.4702 -7.27139,7.55096 c 0.009,0.0117 0.0188,0.0229 0.0279,0.0346 0.20455,0.26623 0.41537,0.52812 0.62942,0.78704 0.40006,0.48152 0.82597,1.12443 0.44597,1.82314 -0.20708,0.38075 -0.7351,0.45885 -1.10278,0.68833 -0.91,0.0149 -1.80678,-0.16475 -2.68149,-0.39842 l 0.0574,-0.21033 -2.84788,2.95744 8.82168,29.89585 16.17369,12.74238 14.70298,-4.90099 H 179.879 l -0.4899,-13.72268 -18.62367,-0.48989 -6.86159,-5.39141 -0.21704,-4.12688 c -0.41501,-1.7e-4 -0.58478,0.001 -1.10536,-0.0465 -0.16146,-0.0148 -0.32919,-0.007 -0.48266,-0.0589 -0.28105,-0.0958 -0.76534,-0.0862 -0.80564,-0.38033 -0.25842,-1.88418 -0.11043,-1.85869 0.69247,-2.09342 0.51178,-0.10989 1.03092,-0.19381 1.55442,-0.2067 l -0.12609,-2.39882 8.82169,-1.96061 13.23278,0.49041 5.55625,-1.46244 c 0.20458,-1.07661 0.21497,-1.42764 0.53589,-1.418 0.13177,0.004 0.3166,0.0671 0.58911,0.16278 0.51104,0.19589 1.0267,0.38074 1.54616,0.55242 l 1.08417,-0.28525 v -16.17369 l -4.61987,-1.58389 c -0.15534,0.23081 -0.31178,0.46096 -0.47801,0.68472 -0.73159,-0.16303 -1.53292,-0.13693 -2.1947,-0.48886 -0.11674,-0.0621 0.0125,-0.56658 0.16898,-1.0542 z m 48.4141,0.40463 -10.09706,7.4998 -0.0858,3.47265 c 0.60201,0.20511 1.19937,0.42561 1.77612,0.69402 0.6895,0.38046 1.1522,0.7909 0.87798,1.85208 -0.21022,0.81351 -1.27336,0.87065 -1.89911,0.94155 -0.28124,0.0332 -0.56236,0.0681 -0.84336,0.10386 l -0.70383,28.55899 1.61127,3.44113 c 0.057,0.0543 0.11179,0.11103 0.16123,0.1726 0.0942,0.11731 0.14556,0.28557 0.17984,0.47025 0.22841,-0.14516 0.45883,-0.22995 0.69918,-0.22944 0.37925,7.9e-4 0.78377,0.20872 1.2454,0.70487 0.32258,0.34681 0.0842,1.06758 -0.003,1.44952 -0.13759,0.43774 -0.29936,0.86552 -0.47697,1.28674 l 3.16828,6.76652 13.60899,0.4687 19.75486,0.46871 v -7.0311 l -3.57032,-4.03644 c -0.46997,0.24278 -0.938,0.48911 -1.39991,0.74724 -0.40802,0.22816 -2.29753,1.34251 -2.75488,1.05885 -0.51264,-0.31794 -0.92137,-0.82881 -1.17718,-1.37511 -0.10006,-0.2137 0.14505,-0.44881 0.21755,-0.67335 0.65188,-0.89342 1.53025,-1.58954 2.29444,-2.38331 0.0892,-0.0864 0.17857,-0.17283 0.26768,-0.25942 l -1.34049,-1.51567 -5.49113,0.13953 c -0.26188,0.17956 -0.57953,0.26912 -0.98444,0.20619 -0.17413,0.28913 -0.36918,0.60399 -0.5085,0.77566 -0.15401,0.18976 -0.33528,0.35588 -0.50281,0.53382 -0.62227,-0.0901 -1.29449,-0.009 -1.86655,-0.27027 -0.26122,-0.11916 -0.25557,-0.70285 -0.25476,-1.1405 l -8.82944,0.22428 2.09651,-24.94319 c -0.11963,-0.17349 -0.13858,-0.53478 -0.0615,-1.22576 -0.5072,-0.83641 -0.38631,-0.97655 0.15038,-1.08521 6.7e-4,-0.004 0.001,-0.008 0.002,-0.0119 0.0107,-0.0679 0.0538,-0.10571 0.11473,-0.12712 l 0.77049,-9.1674 z m 173.45712,0.66611 -13.72268,5.39088 -14.21257,-1.47019 -7.27139,7.55096 c 0.009,0.0116 0.0188,0.0229 0.0279,0.0346 0.20455,0.26623 0.41537,0.52811 0.62942,0.78703 0.40006,0.48152 0.82597,1.12444 0.44597,1.82315 -0.20708,0.38075 -0.73509,0.45885 -1.10277,0.68833 -0.91,0.0149 -1.80678,-0.16476 -2.68149,-0.39843 l 0.0574,-0.21032 -2.84789,2.95744 8.82168,29.89585 16.17421,12.74237 14.70298,-4.90099 h 13.23175 l -0.4899,-13.72267 -18.62366,-0.4899 -6.8616,-5.3914 -0.21704,-4.12688 c -0.41501,-1.7e-4 -0.58426,9.9e-4 -1.10484,-0.0465 -0.16146,-0.0148 -0.32919,-0.007 -0.48266,-0.0589 -0.28105,-0.0958 -0.76585,-0.0862 -0.80615,-0.38034 -0.25842,-1.88419 -0.10992,-1.85868 0.69298,-2.09341 0.51178,-0.10989 1.03041,-0.19382 1.55391,-0.20671 l -0.12609,-2.39882 8.8222,-1.9606 13.23226,0.49041 5.55625,-1.46244 c 0.20458,-1.07661 0.21497,-1.42764 0.53589,-1.418 0.13177,0.004 0.31712,0.0671 0.58963,0.16278 0.51104,0.19589 1.02618,0.38074 1.54564,0.55242 l 1.08469,-0.28526 V 121.763 l -4.62039,-1.58388 c -0.15534,0.23081 -0.31126,0.46095 -0.47749,0.68471 -0.73159,-0.16303 -1.53344,-0.13693 -2.19522,-0.48886 -0.11674,-0.0621 0.0125,-0.56657 0.16898,-1.05419 z m -218.44042,7.26053 4.4111,5.39141 -12.74289,2.94039 -9.80198,-3.9207 9.31209,-3.43079 z m 221.87121,1.07074 4.4111,5.3914 -12.74289,2.94039 -9.80198,-3.92069 9.31209,-3.4308 z m -186.37053,4.87102 c 0.0372,0.0318 0.0777,0.0582 0.1235,0.0744 0.0368,0.013 -0.0658,-0.042 -0.0987,-0.063 -0.008,-0.004 -0.0166,-0.007 -0.0248,-0.0114 z m -54.0551,16.67702 c -7.5e-4,1.4e-4 -0.002,4e-4 -0.003,5.2e-4 7e-5,0.002 4.6e-4,0.004 5.2e-4,0.006 5.6e-4,-0.002 0.001,-0.004 0.002,-0.006 z m 221.87121,1.07073 c -7.5e-4,1.4e-4 -0.002,4e-4 -0.003,5.2e-4 7e-5,0.002 4.5e-4,0.004 5.1e-4,0.006 5.6e-4,-0.002 0.001,-0.004 0.002,-0.006 z M 238.41547,163.2783 c -0.0197,0.0234 -0.0281,0.0481 -0.0574,0.12557 0.0224,-0.0502 0.038,-0.0835 0.0574,-0.12557 z" /><g
     inkscape:label="d"
     inkscape:groupmode="layer"
     id="layer1"><path
       style="display:none;fill:#1a1a1a;fill-opacity:1;fill-rule:nonzero;stroke-linecap:round"
       d="M 38.181641,6.3828125 6.3828125,23.705078 4.2695312,100.00586 l 2.1660157,63.34961 22.7949221,28.55859 46.289062,-1.01562 36.136719,-34.03516 1.41016,-56.921874 -5.57032,-59.90625 -34.695309,-16.84375 z m 0.0918,3.8964845 33.013672,16.029297 32.939447,15.992187 5.3711,57.757809 -1.36914,55.27344 -34.115235,32.13086 -43.24414,0.94922 L 9.859375,162.08984 7.7363281,99.994141 9.7910156,25.794922 Z"
       id="path8"
       clip-path="url(#clipPath29)" /><g
       inkscape:groupmode="layer"
       id="layer4"
       inkscape:label="d 1" /><path
       style="display:none;fill:none;fill-opacity:1;stroke:#1a1a1a;stroke-width:3.46501;stroke-linecap:round;stroke-opacity:1"
       d="m 77.925743,63.222772 5.222617,21.085744 2.282024,25.986734 -3.277537,36.2903 -12.436263,18.17961 -24.382425,2.05229 -14.94802,-20.89047 3.430693,-87.360148 12.742574,-10.537129 z"
       id="path15"
       sodipodi:nodetypes="cccccccccc" /></g><g
     inkscape:groupmode="layer"
     id="layer3"
     inkscape:label="ref"><path
       id="path17"
       style="fill:#4f3f30;fill-opacity:1;fill-rule:nonzero;stroke:#ad6300;stroke-width:1.4985;stroke-linecap:round;stroke-opacity:1;stroke-dasharray:none"
       d="m 157.84101,36.7776 -13.72268,5.390886 -14.21256,-1.470195 -7.2714,7.55096 c 0.009,0.01165 0.0188,0.02294 0.0279,0.03462 0.20455,0.266223 0.41537,0.528112 0.62942,0.787032 0.40006,0.481518 0.82597,1.124436 0.44597,1.823144 -0.20708,0.380747 -0.7351,0.458852 -1.10278,0.68833 -0.91,0.01493 -1.80678,-0.164761 -2.68149,-0.398425 l 0.0574,-0.210323 -2.84789,2.957442 8.82169,29.89585 16.17369,12.742374 14.70298,-4.900993 h 13.23226 l -0.48989,-13.722676 -18.62367,-0.489893 -6.8616,-5.391402 -0.21704,-4.12688 c -0.41501,-1.73e-4 -0.58477,0.0012 -1.10535,-0.04651 -0.16146,-0.0148 -0.32919,-0.0066 -0.48266,-0.05891 -0.28105,-0.09579 -0.76534,-0.08616 -0.80564,-0.380338 -0.25842,-1.884189 -0.11043,-1.858682 0.69247,-2.093412 0.51178,-0.109895 1.03092,-0.193817 1.55442,-0.206706 l -0.12609,-2.39882 8.82169,-1.960604 13.23278,0.490409 5.55625,-1.462443 c 0.20458,-1.076605 0.21496,-1.427636 0.53588,-1.418001 0.13177,0.004 0.31661,0.06713 0.58912,0.162781 0.51104,0.195893 1.02669,0.380739 1.54615,0.552421 l 1.08418,-0.285254 v -16.17369 l -4.61988,-1.583883 c -0.15534,0.230806 -0.31177,0.460955 -0.478,0.684713 -0.73159,-0.163023 -1.53292,-0.136927 -2.1947,-0.488859 -0.11674,-0.06208 0.0125,-0.566577 0.16898,-1.054199 z m 3.4308,8.331275 4.4111,5.391402 -12.74289,2.940389 -9.80199,-3.920691 9.3121,-3.430799 z m -18.55442,22.618774 c -7.5e-4,1.4e-4 -0.002,4.04e-4 -0.003,5.17e-4 7e-5,0.0018 4.6e-4,0.0039 5.2e-4,0.0057 5.6e-4,-0.0021 0.001,-0.0041 0.002,-0.0062 z" /><path
       id="path17-8"
       style="fill:#4f3f30;fill-opacity:1;fill-rule:nonzero;stroke:#ad6300;stroke-width:1.5;stroke-linecap:round;stroke-opacity:1;stroke-dasharray:none"
       d="m 222.3732,35.720819 -13.72268,5.390886 -14.21256,-1.470195 -7.2714,7.55096 c 0.009,0.01165 0.0188,0.02294 0.0279,0.03462 0.20455,0.266223 0.41537,0.528112 0.62942,0.787032 0.40006,0.481518 0.82597,1.124436 0.44597,1.823144 -0.20708,0.380747 -0.7351,0.458852 -1.10278,0.68833 -0.91,0.01493 -1.80678,-0.164761 -2.68149,-0.398425 l 0.0574,-0.210323 -2.84789,2.95744 8.82169,29.89585 16.17369,12.74238 14.70298,-4.901 h 13.23226 l -0.48989,-13.72267 -18.62367,-0.4899 -6.8616,-5.3914 -0.21704,-4.12688 c -0.41501,-1.7e-4 -0.58477,0.001 -1.10535,-0.0465 -0.16146,-0.0148 -0.32919,-0.007 -0.48266,-0.0589 -0.28105,-0.0958 -0.76534,-0.0862 -0.80564,-0.38034 -0.25842,-1.88418 -0.11043,-1.85868 0.69247,-2.09341 0.51178,-0.10989 1.03092,-0.19381 1.55442,-0.2067 l -0.12609,-2.39882 8.82169,-1.96061 13.23278,0.49041 5.55625,-1.46244 c 0.20458,-1.07661 0.21496,-1.42764 0.53588,-1.418 0.13177,0.004 0.31661,0.0671 0.58912,0.16278 0.51104,0.19589 1.02669,0.38074 1.54615,0.55242 l 1.08418,-0.28525 V 41.601593 l -4.61988,-1.583883 c -0.15534,0.230806 -0.31177,0.460955 -0.478,0.684713 -0.73159,-0.163023 -1.53292,-0.136927 -2.1947,-0.488859 -0.11674,-0.06208 0.0125,-0.566577 0.16898,-1.054199 z m 3.4308,8.331275 4.4111,5.391402 -12.74289,2.940392 -9.80199,-3.920694 9.3121,-3.430799 z m -18.55442,22.618774 c -7.5e-4,1.4e-4 -0.002,4e-4 -0.003,5.2e-4 7e-5,0.002 4.6e-4,0.004 5.2e-4,0.006 5.6e-4,-0.002 0.001,-0.004 0.002,-0.006 z" /><path
       style="display:none;fill:#000000;fill-opacity:1;fill-rule:nonzero;stroke:#000000;stroke-width:3.46501;stroke-linecap:round;stroke-opacity:1"
       d="m 287.19801,198.4901 -38.71781,-38.71783 38.23997,10.24637 37.18004,-9.96236 z"
       id="path20" /><path
       style="display:none;fill:#000000;fill-opacity:1;fill-rule:nonzero;stroke:#000000;stroke-width:3.46501;stroke-linecap:round;stroke-opacity:1"
       d="M 273.96535,173.00495 H 298.9604 V 2.450495 h -24.01485 z"
       id="path21" /><path
       style="display:none;fill:#000000;fill-opacity:1;fill-rule:nonzero;stroke:#000000;stroke-width:3.46501;stroke-linecap:round;stroke-opacity:1"
       d="m 286.70792,198.98019 -42.99142,-74.46331 43.90188,25.34676 44.22169,-25.53141 z"
       id="path22" /><path
       style="display:none;fill:#000000;fill-opacity:1;fill-rule:nonzero;stroke:#000000;stroke-width:3.46501;stroke-linecap:round;stroke-opacity:1"
       d="m 272.67036,149.86364 h 29.89603 V 7.734927 h -28.91584 z"
       id="path23"
       sodipodi:nodetypes="ccccc" /><path
       id="path26"
       style="display:inline;fill:#4f3f30;fill-opacity:1;fill-rule:nonzero;stroke:#ad6300;stroke-width:1.5;stroke-linecap:round;stroke-opacity:1;stroke-dasharray:none"
       d="m 290.37607,6.233728 -1.44435,0.144694 c -2.77408,0.083388 -5.63218,0.2370059 -8.59534,0.4831747 l 0.0145,0.3762044 -4.66277,0.4666382 -6.0017,7.8331137 0.0248,8.473901 c 0.39246,-0.146576 0.78627,-0.289174 1.18029,-0.430464 0.3539,-0.107072 1.33359,-0.567513 1.90065,-0.54467 0.13087,0.0053 0.24006,0.03634 0.3142,0.103353 0.40839,0.369136 0.55732,0.949013 0.83612,1.423686 -0.0807,0.214104 -0.14014,0.437385 -0.24184,0.642338 -0.24166,0.486979 -0.67608,0.927114 -1.02268,1.337386 -0.56925,0.673827 -0.30549,0.365366 -0.9617,1.112593 -0.61997,0.710277 -1.29316,1.365871 -1.98851,1.998328 l 0.32815,112.810686 h 20.3202 V 72.308765 c 28.81766,2.070574 47.93045,-6.265193 56.52059,-17.656287 -0.56541,-0.509014 -1.13317,-1.01541 -1.69758,-1.525488 -0.16136,-0.145833 -2.50078,-2.231054 -2.68097,-2.542481 -0.30241,-0.522645 -0.32762,-1.162384 -0.49144,-1.743563 0.35691,-0.303023 0.66114,-0.682697 1.07073,-0.909505 0.0962,-0.05329 0.20584,-0.066 0.31885,-0.06511 0.113,8.89e-4 0.22952,0.01565 0.33951,0.01705 0.88301,0.01117 1.75882,0.192805 2.6355,0.307992 0.0151,-0.0285 0.0291,-0.05758 0.046,-0.08527 0.27106,-0.444973 1.58893,-0.560008 2.07946,-0.659908 0.8016,-0.153936 1.60144,-0.312498 2.41381,-0.392741 2.06016,-6.2263 1.41613,-12.827663 -2.06086,-18.864999 -0.41135,0.09311 -0.82285,0.15841 -1.22111,0.167949 -0.36384,0.0087 -0.83826,0.172929 -1.08779,-0.09198 -0.45989,-0.488266 -0.61763,-1.208472 -0.75499,-1.865003 -0.0339,-0.162306 0.18553,-0.274569 0.27853,-0.411861 0.25135,-0.280988 0.50087,-0.564354 0.75654,-0.841809 -8.11493,-10.61936 -25.69001,-18.8142522 -53.3616,-18.8427776 -1.02054,-0.00105 -2.05513,0.00953 -3.10317,0.031006 z m 0,10.452592 25.24756,2.427759 16.17317,6.86108 5.8813,18.623669 -15.19339,11.76259 -17.64337,0.980302 -14.46527,-5.260144 z" /><path
       style="fill:#ad6300;fill-opacity:1;fill-rule:nonzero;stroke:#f08900;stroke-width:3.46154492;stroke-linecap:round;stroke-opacity:1;stroke-dasharray:none"
       d="m 278.37624,198.98019 -54.33752,-94.11533 55.98312,32.32187 56.59432,-32.67476 z"
       id="path24" /><use
       x="0"
       y="0"
       xlink:href="#path17"
       id="use28"
       transform="translate(221.52475,65.183168)"
       style="stroke-width:1.5;stroke-dasharray:none" /><path
       id="path1"
       style="fill:#4f3f30;fill-opacity:1;fill-rule:nonzero;stroke:#ad6300;stroke-width:1.5;stroke-linecap:round;stroke-opacity:1;stroke-dasharray:none"
       d="m 157.49446,100.88978 -13.72268,5.39089 -14.21256,-1.4702 -7.2714,7.55096 c 0.009,0.0117 0.0188,0.0229 0.0279,0.0346 0.20455,0.26623 0.41537,0.52811 0.62942,0.78703 0.40006,0.48152 0.82597,1.12444 0.44597,1.82315 -0.20708,0.38075 -0.7351,0.45885 -1.10278,0.68833 -0.91,0.0149 -1.80678,-0.16476 -2.68149,-0.39843 l 0.0574,-0.21032 -2.84789,2.95744 8.82169,29.89585 16.17369,12.74238 14.70298,-4.901 h 13.23226 l -0.48989,-13.72267 -18.62367,-0.4899 -6.8616,-5.3914 -0.21704,-4.12688 c -0.41501,-1.7e-4 -0.58477,0.001 -1.10535,-0.0465 -0.16146,-0.0148 -0.32919,-0.007 -0.48266,-0.0589 -0.28105,-0.0958 -0.76534,-0.0862 -0.80564,-0.38034 -0.25842,-1.88418 -0.11043,-1.85868 0.69247,-2.09341 0.51178,-0.10989 1.03092,-0.19381 1.55442,-0.2067 l -0.12609,-2.39882 8.82169,-1.96061 13.23278,0.49041 5.55625,-1.46244 c 0.20458,-1.07661 0.21496,-1.42764 0.53588,-1.418 0.13177,0.004 0.31661,0.0671 0.58912,0.16278 0.51104,0.19589 1.02669,0.38074 1.54615,0.55242 l 1.08418,-0.28525 v -16.17369 l -4.61988,-1.58389 c -0.15534,0.23081 -0.31177,0.46096 -0.478,0.68472 -0.73159,-0.16303 -1.53292,-0.13693 -2.1947,-0.48886 -0.11674,-0.0621 0.0125,-0.56658 0.16898,-1.0542 z m 3.4308,8.33128 4.4111,5.3914 -12.74289,2.94039 -9.80199,-3.92069 9.3121,-3.4308 z m -18.55442,22.61877 c -7.5e-4,1.4e-4 -0.002,4e-4 -0.003,5.2e-4 7e-5,0.002 4.6e-4,0.004 5.2e-4,0.006 5.6e-4,-0.002 0.001,-0.004 0.002,-0.006 z" /><path
       style="fill:#ad6300;fill-opacity:1;stroke:#ad6300;stroke-width:1.5;stroke-linecap:round;stroke-opacity:1;stroke-dasharray:none"
       d="m 290.38365,49.497449 0.10151,26.381259 z"
       id="path32"
       sodipodi:nodetypes="ccc" /></g><g
     inkscape:groupmode="layer"
     id="layer2"
     inkscape:label="guides" /><path
     id="path16"
     style="fill:#4f3f30;fill-opacity:1;fill-rule:nonzero;stroke:#ad6300;stroke-width:1.4985;stroke-linecap:round;stroke-opacity:1;stroke-dasharray:none"
     inkscape:label="d"
     d="M 27.970903,4.9702393 10.727511,16.961755 c 0.08329,0.220467 -0.08832,0.468409 -0.682646,0.756027 -0.2079493,0.100634 -0.407623,0.22015 -0.6237346,0.30179 -0.1134316,0.04285 -0.2301435,0.07182 -0.3482992,0.09302 L 5.9453735,20.287651 6.2605998,23.5505 c 0.073053,-0.0063 0.1458228,-0.014 0.2185913,-0.02532 0.3036871,-0.04228 0.6853183,-0.139882 1.0428304,-0.135392 0.278065,0.0035 0.5416071,0.06872 0.7431071,0.269751 0.269261,0.268638 0.3556185,0.672428 0.5333008,1.008724 -0.023944,0.44374 -0.1457368,0.874009 -0.2464966,1.305346 -0.1165543,0.34138 -0.2756408,0.659129 -0.3358968,1.015959 -0.069235,0.493629 -0.3403799,0.897987 -0.6009969,1.306897 -0.1600341,0.37806 -0.337002,0.704704 -0.6692098,0.979785 -0.039349,0.03258 -0.080698,0.06248 -0.1229899,0.09095 l 4.7103066,48.73966 c 0.309004,0.278345 0.612041,0.56324 0.901754,0.86248 0.521525,0.640406 1.258502,1.629571 0.81132,2.535763 -0.241533,0.489456 -0.67915,0.879854 -1.135848,1.178739 -0.04057,0.02655 -0.0841,0.04609 -0.128674,0.06253 l 2.284615,23.63835 -10.7683353,76.06099 4.3532227,5.67666 c 0.5941783,-0.24272 1.1891932,-0.48368 1.8205607,-0.60307 0.1927534,-0.0364 0.3897389,-0.0475 0.5844609,-0.0713 0.416618,0.12309 0.903686,0.10608 1.249536,0.36897 0.869151,0.66065 0.956822,1.46283 0.74259,2.42362 -0.152601,0.68439 -0.704246,1.45319 -1.168404,2.09135 l 4.165637,5.43171 44.051575,-4.22558 21.175968,-10.98073 c -0.125633,-0.30447 -0.285907,-0.68905 -0.353467,-0.85938 -0.175401,-0.44221 -0.643764,-0.87881 -0.506429,-1.33428 0.56789,-1.88339 0.985193,-2.76078 1.675867,-2.79621 0.361781,-0.0186 0.798782,0.1941 1.371493,0.61391 0.798904,0.63419 1.547965,1.32878 2.231905,2.08463 l 12.093835,-6.27145 10.768332,-58.63053 -0.30385,-9.09402 c -0.79097,-0.49754 -1.37898,-1.19045 -1.80558,-2.04019 -0.20366,-0.6347 -0.49094,-1.35808 -0.41444,-2.04328 0.0309,-0.2771 0.11204,-0.54592 0.16794,-0.81907 0.22307,-0.2914 0.38649,-0.6404 0.66921,-0.87437 0.34947,-0.2892 0.75484,-0.40447 1.17564,-0.44028 l -1.44694,-43.318805 -9.139491,-12.83746 c -0.05492,0.03352 -0.10934,0.06787 -0.164331,0.101286 -0.117917,0.07402 -1.586393,1.002944 -1.746663,1.077454 -0.377445,0.17549 -0.769281,0.525897 -1.173572,0.426847 -1.387331,-0.3399 -1.525655,-1.093851 -1.208712,-2.068091 0.306301,-0.75768 0.598998,-1.518297 0.795817,-2.31407 0.129647,-0.525925 0.263971,-1.0503 0.399459,-1.574581 L 74.960282,13.421403 44.888733,8.0129476 c -0.106683,0.1144638 -0.211946,0.2303281 -0.319877,0.3436483 -0.825394,0.8791127 -1.541706,1.8508351 -2.331641,2.7610721 -0.747485,0.863902 -1.489548,1.733702 -2.278414,2.560567 -0.579706,0.615647 -1.198182,1.193713 -2.023132,1.454175 -0.329131,-0.02334 -0.687073,0.06773 -0.98702,-0.06976 -0.919123,-0.42131 -0.817941,-1.398131 -0.585494,-2.159558 0.131477,-0.407099 0.302305,-0.8038 0.380855,-1.225765 0.10008,-0.381036 0.03987,-0.842234 0.09715,-1.251603 -0.70201,-0.159998 -1.150854,-0.7801361 -1.166337,-1.5802651 0.03069,-0.4195253 0.102487,-0.835768 0.107487,-1.2567708 C 35.74858,7.3466537 35.684928,7.106638 35.636068,6.871932 35.46693,6.6316423 35.244081,6.4496488 35.04799,6.2430298 Z M 55.681356,26.132255 c 0.38129,0.07446 0.843193,-0.0231 1.143599,0.223242 0.843363,0.691575 0.512954,1.577282 0.213941,2.353345 -0.136502,0.354278 -0.320076,0.77792 -0.466122,1.121895 -0.137098,0.310064 -0.292177,0.611158 -0.437182,0.917257 0.171187,0.347687 0.315758,0.709103 0.454752,1.052649 0.03851,0.102265 0.07532,0.204904 0.111105,0.307991 l 7.009391,1.641244 24.00887,34.305916 0.304891,4.334103 c 0.854375,0.319762 1.684651,0.696698 2.466,1.170471 0.272426,0.524219 0.902404,0.988456 0.817004,1.57303 -0.10449,0.715221 -0.762002,1.252259 -1.300179,1.734778 -0.233627,0.209462 -0.601396,0.18398 -0.908989,0.24598 -0.241903,0.04876 -0.486659,0.08731 -0.732771,0.119373 l 2.783809,39.545391 -10.435022,28.78739 c 0.0474,0.0262 0.09429,0.0537 0.140043,0.0842 0.189105,0.12624 0.348313,0.29203 0.522449,0.43822 0.155883,0.32737 0.376382,0.63147 0.467672,0.98237 0.06711,0.25777 0.04461,0.5371 -0.0047,0.79891 -0.183411,0.98088 -0.906405,1.58614 -1.67535,2.11874 -0.39943,0.24894 -0.823828,0.43322 -1.262455,0.57671 l -3.431832,9.46815 -42.627889,15.90963 -13.229167,-14.91537 6.406844,-24.52667 c -0.261799,-0.3085 -0.538827,-0.65614 -0.633553,-0.98702 -0.430367,-1.50328 0.09484,-2.38703 1.590084,-2.67477 l 3.415812,-13.07724 0.526066,-19.48253 c -0.139886,-0.22804 -0.28215,-0.454938 -0.429948,-0.678514 -1.037458,-1.194098 -1.633551,-1.250757 0.513664,-2.410706 l 0.37052,-13.722677 -3.980636,-25.099759 c -0.101114,-0.05459 -0.172247,-0.110704 -0.191719,-0.166915 -0.67197,-1.939712 -0.765074,-2.267931 -0.26355,-2.703195 L 24.512716,40.213049 38.231775,27.783834 49.085893,30.325281 c 0.166105,-0.130081 0.333331,-0.258696 0.502295,-0.38499 1.190099,-0.865126 2.415734,-1.675423 3.665409,-2.451013 0.793722,-0.48353 1.542567,-1.052278 2.427759,-1.357023 z m 38.972298,18.106388 c -0.01386,0.03453 -0.0269,0.06936 -0.04082,0.10387 -0.0024,0.0099 -0.0063,0.02886 -0.0098,0.04496 0.01682,-0.04983 0.03848,-0.100408 0.05064,-0.148829 z" /><path
     id="path19"
     style="fill:#4f3f30;fill-opacity:1;fill-rule:nonzero;stroke:#ad6300;stroke-width:1.5;stroke-linecap:round;stroke-opacity:1;stroke-dasharray:none"
     d="m 205.90836,101.29459 -10.09706,7.4998 -0.0858,3.47266 c 0.60201,0.20511 1.19937,0.4256 1.77612,0.69401 0.6895,0.38046 1.1522,0.79091 0.87798,1.85209 -0.21022,0.81351 -1.27336,0.87064 -1.89911,0.94154 -0.28124,0.0332 -0.56236,0.0681 -0.84336,0.10387 l -0.70383,28.55898 1.61127,3.44114 c 0.057,0.0543 0.11179,0.11102 0.16123,0.17259 0.0942,0.11731 0.14556,0.28558 0.17984,0.47026 0.22841,-0.14516 0.45883,-0.22995 0.69918,-0.22944 0.37925,7.9e-4 0.78377,0.20871 1.2454,0.70486 0.32258,0.34681 0.0843,1.06759 -0.003,1.44953 -0.13759,0.43774 -0.29936,0.86552 -0.47697,1.28674 l 3.16828,6.76651 13.60899,0.46871 19.75486,0.4687 v -7.03109 l -3.57032,-4.03645 c -0.46997,0.24278 -0.93801,0.48911 -1.39992,0.74724 -0.40802,0.22816 -2.29752,1.34251 -2.75487,1.05885 -0.51264,-0.31794 -0.92138,-0.82881 -1.17719,-1.37511 -0.10006,-0.2137 0.14506,-0.4488 0.21756,-0.67334 0.65188,-0.89342 1.53025,-1.58955 2.29444,-2.38332 0.0892,-0.0864 0.17857,-0.17282 0.26768,-0.25941 l -1.34049,-1.51567 -5.49113,0.13952 c -0.26188,0.17956 -0.57953,0.26912 -0.98444,0.20619 -0.17413,0.28913 -0.36918,0.60399 -0.5085,0.77566 -0.15401,0.18976 -0.33528,0.35588 -0.50281,0.53382 -0.62227,-0.0901 -1.29449,-0.009 -1.86655,-0.27027 -0.26122,-0.11916 -0.25558,-0.70284 -0.25477,-1.14049 l -8.82943,0.22427 2.09651,-24.94318 c -0.11963,-0.17349 -0.13859,-0.53478 -0.0615,-1.22576 -0.5072,-0.83641 -0.38631,-0.97655 0.15038,-1.08521 6.7e-4,-0.004 0.001,-0.008 0.002,-0.0119 0.0107,-0.0679 0.0538,-0.10572 0.11472,-0.12713 l 0.7705,-9.1674 z m -9.48262,13.86841 c 0.0372,0.0318 0.0777,0.0582 0.1235,0.0744 0.0368,0.013 -0.0658,-0.042 -0.0987,-0.063 -0.008,-0.004 -0.0166,-0.007 -0.0248,-0.0114 z m 31.85748,34.19377 c -0.0197,0.0234 -0.0281,0.0481 -0.0574,0.12558 0.0224,-0.0502 0.038,-0.0835 0.0574,-0.12558 z" /></svg>
